<?xml version="1.0" standalone="no"?>
<!DOCTYPE svg PUBLIC "-//W3C//DTD SVG 20010904//EN"
 "http://www.w3.org/TR/2001/REC-SVG-20010904/DTD/svg10.dtd">
<svg version="1.0" xmlns="http://www.w3.org/2000/svg"
 width="90.000000pt" height="91.000000pt" viewBox="0 0 90.000000 91.000000"
 preserveAspectRatio="xMidYMid meet">

<g transform="translate(0.000000,91.000000) scale(0.100000,-0.100000)"
fill="#000000" stroke="none">
<path d="M303 746 c-199 -93 -247 -354 -94 -507 59 -59 131 -89 218 -89 43 0
89 6 112 16 36 14 45 14 94 0 31 -9 67 -16 81 -16 32 0 34 24 10 107 -14 49
-14 58 0 94 25 62 21 173 -8 236 -31 66 -93 128 -159 159 -73 34 -181 34 -254
0z m225 -51 c49 -21 110 -80 133 -130 24 -51 25 -150 2 -206 -14 -36 -15 -49
-4 -87 6 -25 10 -46 9 -48 -2 -1 -24 2 -50 8 -38 9 -54 8 -87 -6 -56 -22 -155
-21 -206 3 -92 41 -145 126 -145 231 0 105 53 188 145 231 50 23 151 25 203 4z"/>
</g>
</svg>
