<?xml version="1.0" standalone="no"?>
<!DOCTYPE svg PUBLIC "-//W3C//DTD SVG 20010904//EN"
 "http://www.w3.org/TR/2001/REC-SVG-20010904/DTD/svg10.dtd">
<svg version="1.0" xmlns="http://www.w3.org/2000/svg"
 width="90.000000pt" height="90.000000pt" viewBox="0 0 90.000000 90.000000"
 preserveAspectRatio="xMidYMid meet">

<g transform="translate(0.000000,90.000000) scale(0.100000,-0.100000)"
fill="#000000" stroke="none">
<path d="M155 659 c-4 -11 -3 -25 2 -30 5 -5 133 -8 299 -7 l289 3 0 25 0 25
-292 3 c-289 2 -292 2 -298 -19z"/>
<path d="M154 455 c-4 -8 -4 -22 0 -30 5 -13 46 -15 285 -15 154 0 286 3 295
6 21 8 21 40 0 48 -9 3 -141 6 -295 6 -239 0 -280 -2 -285 -15z"/>
<path d="M154 245 c-4 -8 -4 -22 0 -30 5 -13 44 -15 298 -13 l293 3 0 25 0 25
-293 3 c-254 2 -293 0 -298 -13z"/>
</g>
</svg>
