<?xml version="1.0" standalone="no"?>
<!DOCTYPE svg PUBLIC "-//W3C//DTD SVG 20010904//EN"
 "http://www.w3.org/TR/2001/REC-SVG-20010904/DTD/svg10.dtd">
<svg version="1.0" xmlns="http://www.w3.org/2000/svg"
 width="367.000000pt" height="143.000000pt" viewBox="0 0 367.000000 143.000000"
 preserveAspectRatio="xMidYMid meet">

<g transform="translate(0.000000,143.000000) scale(0.100000,-0.100000)"
fill="#000000" stroke="none">
<path d="M218 1111 c-81 -52 -146 -172 -135 -252 7 -50 29 -84 67 -104 39 -20
56 -11 36 20 -25 39 -29 96 -12 164 15 58 61 140 79 141 4 0 7 -118 6 -262 -1
-243 -7 -348 -25 -405 -5 -18 -2 -23 11 -23 27 0 82 62 94 105 7 25 11 151 11
331 l0 291 -25 11 c-39 18 -57 15 -107 -17z"/>
<path d="M1208 1073 l-3 -68 -52 -3 c-46 -3 -54 -6 -59 -27 -9 -36 2 -45 57
-45 l49 0 0 -110 c0 -114 -10 -156 -48 -205 l-20 -25 -6 39 c-6 38 -30 66
-110 129 l-29 23 21 38 c36 64 25 101 -31 101 -44 0 -87 -48 -87 -97 0 -22 5
-44 11 -50 8 -8 0 -32 -31 -88 -51 -92 -82 -131 -98 -121 -8 5 -12 54 -12 156
l0 149 -26 20 c-67 53 -133 3 -189 -141 l-24 -63 -1 106 c0 102 -1 107 -22
113 -61 16 -58 25 -58 -203 0 -227 2 -236 56 -229 25 3 28 9 40 68 8 35 23 91
34 124 21 63 78 166 92 166 4 0 8 -66 7 -147 -1 -160 8 -199 47 -209 50 -13
103 37 183 174 47 80 54 82 105 21 33 -38 42 -73 27 -105 -12 -28 -61 -33 -81
-9 -26 32 -70 7 -70 -40 0 -22 59 -45 115 -45 75 0 136 40 183 119 l21 34 6
-29 c31 -142 136 -169 200 -51 l18 35 19 -37 c42 -86 145 -94 206 -16 20 25
21 25 27 6 9 -30 54 -61 88 -61 21 0 39 10 60 32 l30 33 33 -33 c47 -47 102
-43 162 11 l22 20 0 -20 c0 -12 -25 -44 -63 -79 -114 -107 -143 -164 -112
-223 39 -76 155 -80 213 -6 32 40 42 87 48 208 5 107 5 108 44 159 21 29 58
94 82 145 42 90 44 93 77 93 32 0 33 -1 27 -32 -16 -90 -18 -122 -11 -173 5
-46 13 -63 44 -95 49 -51 89 -54 133 -10 l30 30 19 -24 c21 -27 74 -42 113
-32 13 3 39 22 59 42 33 34 35 35 42 15 9 -30 53 -61 87 -61 21 0 39 10 59 31
l29 31 0 -26 c0 -28 27 -41 71 -34 22 3 24 9 31 90 8 91 46 225 63 221 6 -2
13 -48 16 -103 7 -113 22 -158 55 -171 42 -15 51 -3 63 89 7 48 23 114 36 147
l24 60 1 -90 c1 -157 30 -228 96 -241 60 -11 111 46 113 129 1 44 -24 32 -40
-20 -11 -34 -21 -49 -35 -51 -37 -5 -48 39 -49 197 l0 145 -30 18 c-51 30 -73
24 -96 -27 -11 -25 -28 -77 -38 -116 l-18 -71 -6 47 c-4 26 -7 70 -7 96 0 58
-24 89 -69 89 -25 0 -31 -7 -49 -47 -11 -27 -23 -60 -27 -76 -14 -54 -25 -37
-25 37 l0 75 -36 7 c-25 5 -39 3 -44 -6 -4 -7 -9 -76 -9 -153 -2 -149 -13
-197 -50 -216 -16 -9 -23 -7 -35 11 -13 18 -16 54 -16 184 0 177 1 174 -61
174 -16 0 -29 -4 -29 -10 0 -5 -15 -1 -32 10 -39 24 -69 25 -108 5 -61 -32
-109 -172 -95 -276 9 -67 -19 -118 -56 -99 -40 22 -49 112 -24 231 23 108 8
129 -76 110 -59 -14 -59 -14 -59 12 0 70 -92 59 -106 -12 -5 -22 -2 -37 10
-50 14 -16 15 -22 2 -57 -20 -58 -74 -161 -87 -170 -9 -5 -11 27 -6 137 5 107
4 148 -5 157 -16 16 -75 16 -80 0 -3 -8 -13 -5 -33 10 -61 48 -134 16 -175
-80 -18 -40 -25 -80 -29 -160 -5 -91 -9 -109 -26 -122 -27 -19 -51 -5 -59 35
-3 17 -6 96 -6 175 l0 143 -32 9 c-23 7 -37 5 -48 -4 -12 -10 -19 -9 -39 7
-33 27 -83 24 -121 -7 -45 -38 -70 -95 -80 -183 -10 -90 -32 -144 -67 -162
-46 -25 -53 2 -53 203 l0 178 64 0 c49 0 65 4 70 16 14 37 7 44 -43 44 -77 0
-81 4 -81 70 0 56 -1 58 -31 69 -63 22 -68 18 -71 -56z m418 -244 c24 -26 32
-150 14 -214 -37 -134 -130 -97 -130 51 0 141 60 225 116 163z m408 8 c25 -19
37 -96 27 -173 -12 -81 -38 -128 -73 -132 -41 -5 -62 35 -62 122 -1 93 9 138
39 170 27 29 43 32 69 13z m716 3 c38 -21 52 -138 26 -224 -18 -58 -41 -86
-73 -86 -33 0 -53 51 -53 138 0 92 8 127 36 157 25 28 36 30 64 15z m-675
-487 c-13 -134 -35 -173 -91 -159 -35 9 -41 49 -16 102 23 46 88 124 104 124
6 0 7 -26 3 -67z"/>
</g>
</svg>
